<svg width="1222" height="808" viewBox="0 0 1222 808" fill="none" xmlns="http://www.w3.org/2000/svg">
<mask id="mask0_235_137" style="mask-type:alpha" maskUnits="userSpaceOnUse" x="6" y="-201" width="1211" height="1211">
<circle cx="611.415" cy="404.415" r="605.415" fill="url(#paint0_radial_235_137)"/>
</mask>
<g mask="url(#mask0_235_137)">
<g style="mix-blend-mode:soft-light">
<path fill-rule="evenodd" clip-rule="evenodd" d="M623.244 376.1L685.668 7.92203L617.558 347.287L612.308 4.6058L606.629 375.348L454.332 0.648193L586.608 352.062L381.557 18.2234L588.484 374.144L233.763 20.8783L567.237 364.374L166.533 58.1471L565.343 372.748L38.9919 67.2342L559.061 376.845L-18.1131 121.657L533.387 372.285L-116.711 136.556L556.568 386.889L-159.799 204.424L491.934 375.775L-222.731 224.121L555.935 394.821L-248.865 300.809L455.28 387.71L-271.844 323.961L555.495 401.674L-279.243 404.242L453.548 406.497L-260.704 429.271L554.674 408.509L-248.865 507.676L487.708 421.633L-190.07 532.876L553.845 416.432L-159.799 604.061L528.176 428.828L-64.754 627.715L554.474 426.617L-18.1131 686.828L559.952 431.246L106.701 707.324L560.293 439.721L166.533 750.338L583.157 431.945L312.612 766.279L577.243 453.675L381.557 790.261L601.373 432.385L538.949 800.562L607.059 461.198L612.308 803.879L617.988 433.135L770.285 807.836L638.01 456.424L843.06 790.261L636.132 434.338L990.854 787.606L657.384 444.114L1058.08 750.338L659.269 435.733L1185.63 741.25L665.562 431.643L1242.73 686.828L691.219 436.195L1341.33 671.928L668.057 421.598L1384.42 604.061L732.664 432.705L1447.34 584.362L668.691 413.665L1473.48 507.676L769.308 420.772L1496.46 484.523L669.132 406.811L1503.86 404.242L771.04 401.987L1485.32 379.212L669.953 399.975L1473.48 300.809L736.891 386.853L1414.69 275.608L670.781 392.05L1384.42 204.424L696.429 379.66L1289.37 180.769L670.15 381.865L1242.73 121.657L664.66 377.241L1117.92 101.16L664.328 368.761L1058.08 58.1471L641.459 376.541L912.005 42.205L647.375 354.808L843.06 18.2234L623.244 376.1Z" fill="url(#paint1_radial_235_137)"/>
</g>
</g>
<defs>
<radialGradient id="paint0_radial_235_137" cx="0" cy="0" r="1" gradientUnits="userSpaceOnUse" gradientTransform="translate(611.415 368.956) rotate(90) scale(640.874)">
<stop stop-color="#000000"/>
<stop offset="0.699398" stop-color="#00000" stop-opacity="0"/>
</radialGradient>
<radialGradient id="paint1_radial_235_137" cx="0" cy="0" r="1" gradientUnits="userSpaceOnUse" gradientTransform="translate(612.308 404.242) rotate(90) scale(403.594 891.552)">
<stop stop-color="grey"/>
<stop offset="1" stop-color="#000000" stop-opacity="0"/>
</radialGradient>
</defs>
</svg>
