<svg width="50" height="48" viewBox="0 0 50 48" fill="none" xmlns="http://www.w3.org/2000/svg">
<path d="M24.9998 3.82979L28.0253 0L29.9913 4.45532L33.8721 1.50638L34.6764 6.30638L39.1572 4.41702L38.7487 9.26809L43.5615 8.54042L41.953 13.1489L46.804 13.6468L44.0977 17.7064L48.6679 19.3915L45.0423 22.6468L49.0509 25.417L44.7232 27.6638L47.9147 31.3532L43.1657 32.4511L45.3487 36.817L40.4721 36.7021L41.4934 41.4638L36.8083 40.1489L36.604 45.0255L32.3913 42.5745L30.987 47.2468L27.5147 43.8255L24.9998 48L22.4849 43.8255L19.0126 47.2468L17.6083 42.5745L13.3955 45.0255L13.1913 40.1489L8.50618 41.4638L9.52745 36.7021L4.65086 36.817L6.83384 32.4511L2.0849 31.3532L5.27639 27.6638L0.94873 25.417L4.95724 22.6468L1.33171 19.3915L5.90192 17.7064L3.19554 13.6468L8.0466 13.1489L6.43809 8.54042L11.2509 9.26809L10.8423 4.41702L15.3232 6.30638L16.1275 1.50638L20.0083 4.45532L21.9743 0L24.9998 3.82979Z" fill="#EA580C"/>
</svg>
